<svg width="165" height="104" viewBox="0 0 165 104" fill="none" xmlns="http://www.w3.org/2000/svg">
<path d="M74.4031 4.18446C77.7803 4.1815 81.1575 4.17876 84.5346 4.17715C84.5847 4.17713 84.6349 4.17711 84.6865 4.17708C85.7759 4.17657 86.8653 4.17609 87.9547 4.17565C88.4891 4.17543 89.0234 4.17521 89.5578 4.17498C89.611 4.17496 89.6641 4.17494 89.7189 4.17491C91.4375 4.17418 93.1561 4.17289 94.8746 4.17129C96.643 4.16966 98.4114 4.1686 100.18 4.16825C100.43 4.1682 100.681 4.16815 100.932 4.16809C101.006 4.16807 101.006 4.16807 101.081 4.16805C101.87 4.16785 102.659 4.16705 103.448 4.16602C104.245 4.165 105.041 4.16462 105.837 4.16487C106.267 4.16499 106.698 4.16484 107.128 4.16389C112.61 4.15219 118.395 4.58223 126.004 9.5344C126.032 9.56069 126.061 9.58699 126.09 9.61409C130.036 13.3039 130.814 19.6771 131.104 25.8051C131.278 31.1625 130.956 36.9828 128.478 42.0367C128.451 42.0904 128.425 42.1441 128.397 42.1994C128.065 42.8671 127.705 43.5017 127.27 44.1076C127.226 44.169 127.182 44.2304 127.137 44.2937C126.893 44.6262 126.635 44.9381 126.356 45.2409C126.246 45.3604 126.141 45.4827 126.036 45.6069C125.327 46.4162 124.385 47.0365 123.532 47.6837C123.356 47.8178 123.18 47.9527 123.005 48.0891C122.971 48.116 122.936 48.1429 122.901 48.1706C122.811 48.2404 122.722 48.3105 122.633 48.3805C122.495 48.4796 122.495 48.4796 122.322 48.5371C122.483 48.7228 122.69 48.8334 122.898 48.9578C123.704 49.4524 124.455 50.0138 125.141 50.6656C125.222 50.7368 125.304 50.8075 125.386 50.8777C125.758 51.2036 126.079 51.5525 126.389 51.9388C126.474 52.044 126.56 52.1481 126.648 52.2507C129.925 56.1021 130.216 61.5903 130.21 66.404C130.21 66.6478 130.21 66.8916 130.21 67.1354C130.21 67.5558 130.21 67.9762 130.21 68.3965C130.209 69.0043 130.209 69.6121 130.209 70.2198C130.209 71.2064 130.208 72.1929 130.208 73.1794C130.207 74.1366 130.207 75.0938 130.207 76.051C130.207 76.1102 130.207 76.1694 130.207 76.2304C130.207 76.5274 130.206 76.8245 130.206 77.1216C130.206 79.578 130.205 82.0345 130.203 84.491C128.134 84.5365 126.066 84.5565 123.996 84.5525C123.649 84.5519 123.302 84.5516 122.955 84.5513C122.284 84.5507 121.613 84.5498 120.942 84.5485C120.942 84.508 120.942 84.4675 120.942 84.4258C120.937 82.0181 120.932 79.6104 120.926 77.2026C120.925 76.9127 120.924 76.6228 120.924 76.3329C120.923 76.2752 120.923 76.2174 120.923 76.158C120.921 75.2269 120.919 74.2958 120.917 73.3647C120.915 72.4074 120.913 71.45 120.911 70.4927C120.909 69.9033 120.908 69.3139 120.907 68.7244C120.906 68.3187 120.905 67.913 120.904 67.5073C120.903 67.2742 120.903 67.0411 120.902 66.808C120.902 65.3909 120.865 63.9758 120.669 62.5699C120.659 62.4997 120.649 62.4295 120.639 62.3572C120.29 59.9281 119.581 57.5388 118.008 55.6129C117.983 55.5816 117.957 55.5503 117.931 55.5181C116.117 53.3059 113.022 52.6547 110.318 52.3827C109.285 52.2872 108.251 52.2626 107.215 52.244C107.084 52.2415 106.952 52.239 106.821 52.2365C106.504 52.2304 106.187 52.2245 105.87 52.2188C105.869 51.2472 105.868 50.2756 105.867 49.3039C105.867 48.8527 105.866 48.4015 105.866 47.9503C105.865 47.5568 105.865 47.1633 105.865 46.7698C105.864 46.5617 105.864 46.3536 105.864 46.1454C105.863 45.9124 105.863 45.6795 105.863 45.4465C105.863 45.3783 105.863 45.3101 105.863 45.2399C105.863 44.8401 105.883 44.4475 105.927 44.0501C105.999 44.0493 106.071 44.0484 106.145 44.0476C110.645 43.9912 115.623 43.7719 118.986 40.3684C120.764 38.5119 121.462 35.8833 121.762 33.4006C121.769 33.3411 121.769 33.3411 121.776 33.2805C122.359 28.3757 122.891 21.02 119.964 15.9198C119.837 15.7766 119.702 15.6462 119.561 15.5171C119.517 15.472 119.473 15.4269 119.428 15.3805C119.377 15.3307 119.326 15.2808 119.274 15.2295C119.238 15.1937 119.203 15.1579 119.166 15.121C117.099 13.1326 113.872 12.5272 111.126 12.2561C111.023 12.2458 111.023 12.2458 110.917 12.2353C101.89 11.4014 92.7874 12.0862 83.7224 12.0655C83.7224 31.0112 83.7224 49.9569 83.7224 69.4767C80.628 69.4767 77.5337 69.4767 74.3456 69.4767C74.3445 66.8648 74.3445 66.8648 74.3441 65.9219C74.3441 65.8597 74.3441 65.7975 74.344 65.7335C74.343 62.9213 74.3425 60.1091 74.342 57.2968C74.342 57.1358 74.342 56.9747 74.342 56.8136C74.3413 52.55 74.3413 48.2863 74.3741 20.4804C74.3744 20.2763 74.3748 20.0722 74.3751 19.8681C74.3833 15.0294 74.3919 10.1907 74.4031 4.18446Z" fill="#082F49"/>
<path d="M23.2051 4.1839C28.2357 4.1839 33.2664 4.1839 38.4495 4.1839C38.6604 4.74633 38.8684 5.30682 39.0623 5.87485C39.099 5.98188 39.1358 6.0889 39.1725 6.19592C39.2109 6.30784 39.2492 6.41978 39.2876 6.53173C39.4089 6.88605 39.5306 7.24023 39.6522 7.59441C39.6795 7.67362 39.7067 7.75284 39.7339 7.83205C39.9664 8.5091 40.2012 9.18534 40.4378 9.86101C40.775 10.8248 41.1084 11.7899 41.4409 12.7553C41.7758 13.7279 42.1117 14.7001 42.4512 15.6712C42.7744 16.5957 43.0952 17.521 43.4147 18.4468C43.4377 18.5133 43.4607 18.5799 43.4844 18.6484C43.5774 18.9181 43.6705 19.1877 43.7636 19.4573C44.0101 20.1716 44.257 20.8858 44.5041 21.5999C44.5257 21.6622 44.5472 21.7244 44.5694 21.7885C44.8741 22.6687 45.1802 23.5484 45.4875 24.4277C45.7956 25.3097 46.1012 26.1926 46.4061 27.0757C46.4405 27.1755 46.4405 27.1755 46.4757 27.2773C46.5688 27.5469 46.6619 27.8166 46.7549 28.0863C47.0015 28.8006 47.2484 29.5148 47.4955 30.2289C47.5171 30.2912 47.5386 30.3535 47.5608 30.4176C47.864 31.2937 48.1689 32.1693 48.4748 33.0444C48.8234 34.0421 49.1677 35.0412 49.5118 36.0404C49.8218 36.9406 50.1331 37.8404 50.4473 38.7392C50.7705 39.6637 51.0913 40.589 51.4109 41.5148C51.4339 41.5813 51.4568 41.6479 51.4805 41.7164C51.5736 41.9861 51.6666 42.2557 51.7597 42.5253C52.0063 43.2396 52.2532 43.9538 52.5003 44.6679C52.5218 44.7302 52.5434 44.7924 52.5655 44.8565C52.8702 45.7367 53.1764 46.6164 53.4836 47.4957C53.7917 48.3777 54.0974 49.2606 54.4022 50.1437C54.4252 50.2102 54.4482 50.2767 54.4718 50.3453C54.5649 50.6149 54.658 50.8846 54.7511 51.1542C54.9976 51.8686 55.2445 52.5828 55.4916 53.2969C55.5132 53.3592 55.5348 53.4215 55.557 53.4856C55.8602 54.3617 56.165 55.2373 56.4709 56.1124C56.8195 57.1101 57.1638 58.1092 57.5079 59.1084C57.818 60.0086 58.1292 60.9084 58.4435 61.8071C58.8131 62.8643 59.1794 63.9227 59.5445 64.9814C59.7829 65.6724 60.0218 66.3632 60.262 67.0535C60.3338 67.26 60.4056 67.4665 60.4774 67.6731C60.5233 67.8052 60.5693 67.9373 60.6154 68.0693C60.6791 68.2519 60.7426 68.4346 60.8061 68.6173C60.825 68.6712 60.8438 68.7251 60.8633 68.7806C60.8805 68.8304 60.8978 68.8801 60.9155 68.9314C60.938 68.9959 60.938 68.9959 60.9609 69.0616C61.0025 69.1972 61.0295 69.337 61.0573 69.4761C58.0389 69.4761 55.0205 69.4761 51.9106 69.4761C51.6517 68.8936 51.6517 68.8936 51.559 68.6459C51.538 68.5898 51.5169 68.5338 51.4952 68.4761C51.4731 68.4167 51.451 68.3573 51.4282 68.2962C51.4044 68.2326 51.3805 68.1691 51.356 68.1036C51.2783 67.896 51.2007 67.6883 51.1232 67.4807C51.0825 67.3717 51.0417 67.2627 51.0009 67.1537C50.6173 66.1284 50.2367 65.102 49.858 64.0749C49.5551 63.2537 49.2502 62.4332 48.9444 61.613C48.9215 61.5514 48.8985 61.4897 48.8748 61.4262C48.7832 61.1805 48.6916 60.9347 48.5999 60.689C48.3765 60.0899 48.1535 59.4906 47.9305 58.8913C47.8929 58.79 47.8552 58.6887 47.8175 58.5874C47.7428 58.3866 47.6681 58.1858 47.5934 57.985C47.4795 57.6789 47.3656 57.3728 47.2517 57.0666C47.2327 57.0155 47.2137 56.9644 47.1941 56.9118C47.1363 56.7566 47.0786 56.6015 47.0209 56.4464C46.5977 55.3089 46.5977 55.3089 46.3926 54.7576C45.9599 53.5947 45.527 52.4318 45.0938 51.2691C44.6419 50.0563 44.1904 48.8433 43.7391 47.6303C43.6253 47.3242 43.5113 47.0181 43.3974 46.7119C43.3784 46.6608 43.3594 46.6097 43.3398 46.557C43.2821 46.4019 43.2244 46.2468 43.1667 46.0917C42.7434 44.9542 42.7434 44.9542 42.5383 44.4029C42.1057 43.24 41.6728 42.0771 41.2395 40.9144C40.9002 40.0036 40.561 39.0928 40.222 38.1819C40.2033 38.1315 40.1846 38.0812 40.1653 38.0293C40.0158 37.6275 39.8663 37.2258 39.7169 36.824C39.5857 36.4712 39.4544 36.1185 39.3232 35.7658C39.2951 35.6903 39.2951 35.6903 39.2665 35.6133C38.9464 34.7532 38.6261 33.8932 38.3057 33.0333C37.8538 31.8205 37.4023 30.6075 36.9511 29.3945C36.8372 29.0884 36.7233 28.7823 36.6094 28.4761C36.5903 28.425 36.5713 28.3739 36.5517 28.3212C36.494 28.1661 36.4363 28.011 36.3786 27.8559C35.9553 26.7184 35.9553 26.7184 35.7502 26.1671C35.3176 25.0042 34.8847 23.8413 34.4514 22.6786C34.1121 21.7678 33.7729 20.857 33.434 19.9461C33.4152 19.8957 33.3965 19.8454 33.3772 19.7935C33.2277 19.3917 33.0783 18.99 32.9288 18.5882C32.7023 17.9792 32.4757 17.3703 32.2491 16.7614C32.1409 16.4708 32.0328 16.1802 31.9247 15.8896C31.8033 15.5631 31.6817 15.2366 31.5602 14.9101C31.5136 14.7848 31.4669 14.6594 31.4203 14.534C31.1861 13.9043 30.951 13.275 30.7122 12.647C30.6928 12.5957 30.6733 12.5444 30.6532 12.4915C30.6353 12.4445 30.6174 12.3976 30.599 12.3492C30.5833 12.308 30.5676 12.2669 30.5515 12.2244C30.5112 12.1189 30.5112 12.1189 30.4534 12.0075C30.4409 12.042 30.4285 12.0765 30.4156 12.1121C30.2522 12.565 30.0886 13.0179 29.9249 13.4708C29.9046 13.5268 29.9046 13.5268 29.8839 13.584C29.4762 14.7115 29.0644 15.8374 28.6485 16.9619C28.2033 18.1658 27.7665 19.3725 27.3338 20.5809C26.9075 21.7713 26.4747 22.9591 26.0358 24.1449C25.6322 25.2358 25.2367 26.3294 24.8446 27.4245C24.4044 28.6539 23.958 29.8809 23.5047 31.1056C23.1011 32.1965 22.7055 33.2901 22.3134 34.3851C21.8732 35.6146 21.4268 36.8416 20.9735 38.0663C20.5699 39.1572 20.1744 40.2508 19.7823 41.3458C19.3661 42.5081 18.9452 43.6684 18.5167 44.8261C18.0846 45.9935 17.6601 47.1634 17.2403 48.3352C16.8322 49.4745 16.4208 50.6125 16.0021 51.7479C15.6513 52.6991 15.3052 53.652 14.9609 54.6056C14.5612 55.7122 14.1573 56.817 13.7492 57.9205C13.3041 59.1243 12.8673 60.3309 12.4347 61.5392C12.0022 62.7467 11.5635 63.9517 11.1183 65.1546C10.6995 66.2865 10.2884 67.421 9.88309 68.5578C9.8624 68.6156 9.8417 68.6735 9.82038 68.7331C9.78176 68.8411 9.74327 68.9491 9.70493 69.0572C9.67962 69.1279 9.67962 69.1279 9.65379 69.2001C9.63916 69.2411 9.62454 69.2822 9.60947 69.3245C9.57138 69.4186 9.57138 69.4186 9.51385 69.4761C9.3959 69.4817 9.27777 69.4831 9.15969 69.483C9.12229 69.4831 9.08489 69.4831 9.04636 69.4832C8.92013 69.4833 8.79391 69.4829 8.66768 69.4826C8.57756 69.4826 8.48744 69.4826 8.39732 69.4827C8.15189 69.4827 7.90647 69.4823 7.66104 69.4819C7.40484 69.4816 7.14864 69.4815 6.89243 69.4815C6.40694 69.4813 5.92144 69.4808 5.43594 69.4802C4.88337 69.4796 4.33079 69.4793 3.77822 69.479C2.64121 69.4784 1.5042 69.4774 0.367188 69.4761C0.427573 69.1892 0.491193 68.909 0.588851 68.632C0.609545 68.5729 0.630239 68.5137 0.65156 68.4528C0.673918 68.3898 0.696275 68.3269 0.719311 68.262C0.754801 68.1609 0.754801 68.1609 0.791008 68.0578C0.855345 67.8748 0.919942 67.6918 0.984656 67.5089C1.05325 67.3149 1.12148 67.1207 1.18976 66.9265C1.31602 66.5675 1.44255 66.2087 1.56921 65.8499C1.76901 65.2839 1.96816 64.7176 2.16739 64.1514C2.23377 63.9627 2.30019 63.7742 2.36663 63.5856C2.61159 62.89 2.85563 62.194 3.09856 61.4977C3.11189 61.4595 3.12522 61.4213 3.13895 61.3819C3.24728 61.0714 3.35558 60.7609 3.46387 60.4503C3.84467 59.3583 4.2282 58.2673 4.61542 57.1775C4.94036 56.2627 5.25972 55.3461 5.57698 54.4286C5.89862 53.4987 6.22536 52.5707 6.55485 51.6436C6.8644 50.7723 7.16949 49.8995 7.47167 49.0256C7.81362 48.0366 8.16034 47.0495 8.51074 46.0635C8.82029 45.1922 9.12538 44.3194 9.42756 43.4455C9.76951 42.4566 10.1162 41.4695 10.4666 40.4835C10.7762 39.6122 11.0813 38.7394 11.3834 37.8655C11.6997 36.9509 12.0194 36.0377 12.3434 35.1258C12.7219 34.0603 13.0964 32.9935 13.4688 31.9259C13.4956 31.8489 13.5225 31.772 13.5493 31.695C13.6574 31.3853 13.7654 31.0756 13.8734 30.766C14.1612 29.9408 14.4494 29.1158 14.7379 28.291C14.7505 28.2551 14.7631 28.2192 14.776 28.1822C15.1438 27.1306 15.5144 26.0799 15.8873 25.0301C16.2133 24.1121 16.5337 23.1922 16.8521 22.2715C17.1737 21.3416 17.5005 20.4136 17.83 19.4865C18.1395 18.6151 18.4446 17.7423 18.7468 16.8684C19.0888 15.8795 19.4355 14.8924 19.7859 13.9064C20.0954 13.0351 20.4005 12.1623 20.7027 11.2884C21.0443 10.3003 21.3906 9.31408 21.7408 8.32904C22.1143 7.27822 22.4808 6.22505 22.8445 5.17083C22.8645 5.11312 22.8844 5.0554 22.905 4.99594C22.9423 4.88774 22.9797 4.77952 23.0169 4.67127C23.0334 4.62364 23.0498 4.57602 23.0668 4.52695C23.0882 4.46471 23.0882 4.46471 23.1101 4.40122C23.1476 4.29895 23.1476 4.29895 23.2051 4.1839Z" fill="#082F49"/>
<path d="M143.952 4.1839C146.971 4.1839 149.989 4.1839 153.099 4.1839C153.099 30.704 153.099 57.2242 153.099 84.548C150.08 84.548 147.062 84.548 143.952 84.548C143.952 58.0278 143.952 31.5077 143.952 4.1839Z" fill="#082F49"/>
<path d="M4.23385 89.5896C4.34014 89.5894 4.44643 89.5892 4.55271 89.5889C4.84512 89.5883 5.13751 89.5888 5.42991 89.5895C5.74907 89.59 6.06824 89.5895 6.38741 89.5892C6.94906 89.5887 7.5107 89.5889 8.07234 89.5895C8.67812 89.5901 9.28389 89.5903 9.88966 89.5901C9.92809 89.5901 9.96652 89.5901 10.0061 89.5901C10.2023 89.59 10.3985 89.59 10.5947 89.5899C12.0276 89.5894 13.4604 89.5897 14.8932 89.5904C16.3456 89.5912 17.798 89.5916 19.2504 89.5915C19.3191 89.5915 19.3191 89.5915 19.3892 89.5915C19.8089 89.5915 20.2286 89.5914 20.6482 89.5914C21.7006 89.5913 22.753 89.5913 23.8054 89.5913C23.8537 89.5913 23.9019 89.5913 23.9516 89.5913C26.3293 89.5913 28.7071 89.592 31.0849 89.5928C31.922 89.593 32.7591 89.5933 33.5962 89.5935C33.6742 89.5935 33.6742 89.5935 33.7539 89.5936C36.1643 89.5942 38.5747 89.5945 40.9851 89.5946C41.1427 89.5946 41.3003 89.5946 41.458 89.5946C42.4085 89.5947 43.3591 89.5948 44.3097 89.5948C46.6728 89.5949 49.0359 89.5951 51.399 89.5953C51.4528 89.5953 51.5066 89.5953 51.562 89.5953C55.0464 89.5956 58.5307 89.5961 62.0151 89.5968C62.0708 89.5968 62.1264 89.5969 62.1837 89.5969C63.8771 89.5972 65.5706 89.5976 67.2641 89.5979C69.1381 89.5984 71.0121 89.5988 72.8861 89.5992C72.9425 89.5992 72.9988 89.5992 73.0569 89.5992C78.4091 89.6003 83.7613 89.601 89.1136 89.6015C89.3403 89.6015 89.567 89.6016 89.7937 89.6016C91.8798 89.6018 93.966 89.602 96.0522 89.6022C96.1354 89.6022 96.1354 89.6022 96.2203 89.6022C96.3882 89.6022 96.5562 89.6022 96.7242 89.6023C101.262 89.6027 105.799 89.6032 110.336 89.6037C110.497 89.6037 110.657 89.6037 110.817 89.6037C116.017 89.6043 121.216 89.605 139.661 89.6083C139.728 89.6083 139.728 89.6083 139.797 89.6083C144.346 89.6092 148.894 89.6101 153.443 89.611C153.448 91.0597 153.452 92.5084 153.455 93.9571C153.456 94.6298 153.458 95.3025 153.46 95.9752C153.463 96.5618 153.464 97.1483 153.465 97.7349C153.465 98.0453 153.466 98.3556 153.467 98.666C153.469 98.9587 153.469 99.2513 153.469 99.5439C153.469 99.6508 153.47 99.7577 153.47 99.8646C153.479 101.01 153.228 101.981 152.423 102.836C151.612 103.657 150.613 103.987 149.48 103.999C149.249 104 149.018 104 148.787 104C148.681 104 148.575 104 148.469 104C148.178 104 147.886 104 147.595 104C147.276 104 146.958 104 146.64 104C146.08 104 145.52 104 144.96 104C144.356 104 143.752 103.999 143.148 104C143.091 104 143.091 104 143.032 104C142.836 104 142.641 104 142.445 104C141.017 104 139.588 104 138.16 103.999C136.711 103.999 135.263 103.999 133.815 103.999C133.769 103.999 133.724 103.999 133.677 103.999C133.258 103.999 132.84 103.999 132.422 103.999C131.372 103.999 130.323 103.999 129.274 103.999C129.226 103.999 129.178 103.999 129.128 103.999C126.758 103.999 124.387 103.999 122.016 103.999C121.181 103.999 120.347 103.998 119.512 103.998C119.434 103.998 119.434 103.998 119.355 103.998C116.951 103.998 114.548 103.998 112.145 103.998C111.988 103.998 111.831 103.998 111.673 103.998C110.726 103.998 109.778 103.998 108.83 103.998C106.474 103.998 104.118 103.998 101.762 103.998C101.709 103.998 101.655 103.998 101.6 103.998C98.1259 103.998 94.6519 103.998 91.1778 103.997C91.1224 103.997 91.0669 103.997 91.0098 103.997C89.3213 103.997 87.6328 103.997 85.9443 103.997C84.0757 103.997 82.2072 103.997 80.3386 103.996C80.2824 103.996 80.2262 103.996 80.1684 103.996C74.832 103.996 69.4957 103.996 64.1593 103.996C63.9333 103.996 63.7073 103.996 63.4813 103.996C61.4013 103.996 59.3214 103.996 57.2415 103.995C57.1862 103.995 57.1309 103.995 57.0739 103.995C56.9065 103.995 56.739 103.995 56.5716 103.995C52.0477 103.995 47.5238 103.995 43 103.995C42.8404 103.995 42.6807 103.995 42.5211 103.995C37.3368 103.995 32.1525 103.995 13.7626 103.993C13.7177 103.993 13.6728 103.993 13.6266 103.993C9.09129 103.993 4.556 103.993 0.0207126 103.993C0.0166764 102.534 0.0136357 101.076 0.0117711 99.618C0.0108822 98.9409 0.0096707 98.2638 0.00769335 97.5867C0.0059702 96.9964 0.00485914 96.4061 0.00447497 95.8158C0.0042505 95.5033 0.00372484 95.1909 0.00246573 94.8785C0.00128873 94.5841 0.000934134 94.2896 0.00119251 93.9952C0.00114529 93.8875 0.000805286 93.7798 0.000140057 93.6721C-0.00663127 92.5188 0.230602 91.5599 1.04416 90.7047C1.94524 89.8025 3.00847 89.5839 4.23385 89.5896ZM1.44561 91.4253C1.00528 91.9987 0.761128 92.5926 0.761635 93.3155C0.761586 93.3578 0.761537 93.4001 0.761486 93.4437C0.761391 93.5851 0.761707 93.7265 0.762022 93.8679C0.762038 93.9694 0.762029 94.0709 0.761997 94.1724C0.76198 94.4477 0.762318 94.7231 0.76272 94.9985C0.763079 95.2863 0.763113 95.5741 0.763182 95.862C0.76336 96.4069 0.763832 96.9519 0.76441 97.4969C0.765053 98.1174 0.765369 98.7378 0.765658 99.3583C0.766259 100.635 0.767271 101.911 0.768553 103.187C5.33594 103.188 9.90333 103.19 14.4707 103.191C14.5154 103.191 14.5601 103.191 14.6062 103.191C19.4159 103.192 24.2256 103.193 43.3064 103.197C43.4657 103.197 43.625 103.197 43.7843 103.197C48.298 103.198 52.8118 103.198 57.3255 103.199C57.4925 103.199 57.6596 103.199 57.8267 103.199C57.9094 103.199 57.9094 103.199 57.9939 103.199C60.0686 103.199 62.1433 103.199 64.218 103.2C64.4434 103.2 64.6688 103.2 64.8943 103.2C70.2157 103.201 75.5372 103.201 80.8586 103.203C80.9426 103.203 80.9426 103.203 81.0284 103.203C82.8912 103.204 84.754 103.204 86.6169 103.205C88.3 103.205 89.9832 103.206 91.6663 103.206C91.7493 103.206 91.7493 103.206 91.8339 103.206C95.2962 103.207 98.7586 103.208 102.221 103.208C102.274 103.208 102.328 103.208 102.383 103.208C104.731 103.208 107.079 103.209 109.427 103.209C110.372 103.209 111.317 103.209 112.261 103.209C112.418 103.209 112.575 103.209 112.731 103.209C115.128 103.209 117.524 103.21 119.921 103.211C119.973 103.211 120.024 103.211 120.078 103.211C120.909 103.211 121.741 103.211 122.573 103.212C124.933 103.213 127.294 103.213 129.655 103.213C129.703 103.213 129.75 103.213 129.8 103.213C130.844 103.213 131.889 103.213 132.934 103.213C133.35 103.213 133.767 103.213 134.184 103.213C134.229 103.213 134.274 103.213 134.321 103.213C135.763 103.213 137.206 103.214 138.648 103.215C140.067 103.216 141.487 103.216 142.907 103.215C143.101 103.215 143.296 103.215 143.49 103.215C143.547 103.215 143.547 103.215 143.605 103.215C144.242 103.215 144.879 103.215 145.516 103.216C146.066 103.217 146.617 103.217 147.168 103.216C147.481 103.216 147.793 103.216 148.106 103.216C148.39 103.217 148.674 103.217 148.957 103.216C149.059 103.216 149.161 103.216 149.262 103.217C150.286 103.223 151.117 102.995 151.884 102.282C152.426 101.699 152.703 100.963 152.702 100.175C152.702 100.133 152.702 100.091 152.702 100.048C152.702 99.9071 152.702 99.7665 152.702 99.6259C152.702 99.525 152.702 99.424 152.702 99.3231C152.702 99.0493 152.701 98.7755 152.701 98.5017C152.701 98.2154 152.701 97.9292 152.701 97.643C152.7 97.1011 152.7 96.5591 152.699 96.0172C152.699 95.4002 152.698 94.7832 152.698 94.1662C152.697 92.8971 152.696 91.628 152.695 90.3588C148.131 90.3579 143.567 90.357 139.003 90.3561C138.958 90.3561 138.913 90.3561 138.867 90.3561C134.061 90.3552 129.255 90.3543 110.188 90.3516C110.028 90.3515 109.869 90.3515 109.71 90.3515C105.2 90.351 100.689 90.3505 96.1789 90.3501C96.012 90.3501 95.845 90.35 95.6781 90.35C95.623 90.35 95.5678 90.35 95.511 90.35C93.4378 90.3498 91.3646 90.3496 89.2915 90.3494C89.0662 90.3494 88.8409 90.3494 88.6157 90.3493C83.2981 90.3488 77.9805 90.3481 72.6629 90.347C72.5789 90.347 72.5789 90.347 72.4932 90.347C70.6317 90.3466 68.7702 90.3462 66.9086 90.3458C65.2266 90.3454 63.5447 90.345 61.8627 90.3447C61.8074 90.3447 61.7522 90.3446 61.6953 90.3446C58.2354 90.3439 54.7755 90.3434 51.3157 90.3431C51.2623 90.3431 51.2088 90.3431 51.1538 90.3431C48.8074 90.3429 46.461 90.3427 44.1146 90.3426C43.1706 90.3426 42.2267 90.3425 41.2827 90.3425C41.1262 90.3425 40.9697 90.3425 40.8132 90.3425C38.4184 90.3423 36.0236 90.342 33.6288 90.3413C33.5771 90.3413 33.5255 90.3413 33.4722 90.3413C32.6411 90.3411 31.81 90.3408 30.9788 90.3406C28.6198 90.3398 26.2608 90.3392 23.9018 90.3391C23.854 90.3391 23.8061 90.3391 23.7568 90.3391C22.713 90.3391 21.6692 90.3392 20.6254 90.3392C20.2091 90.3393 19.7928 90.3393 19.3765 90.3393C19.3311 90.3393 19.2857 90.3393 19.2389 90.3393C17.7977 90.3394 16.3566 90.339 14.9155 90.3382C13.4968 90.3375 12.078 90.3372 10.6593 90.3378C9.79039 90.3381 8.92143 90.338 8.05248 90.3371C7.50208 90.3365 6.95169 90.3366 6.40129 90.3372C6.08882 90.3375 5.77635 90.3376 5.46387 90.3369C5.18037 90.3362 4.89688 90.3364 4.61338 90.3372C4.5117 90.3373 4.41002 90.3372 4.30834 90.3367C3.19213 90.3319 2.2127 90.5521 1.44561 91.4253Z" fill="#082F49"/>
<path d="M21.249 75.5168C21.8565 75.5168 22.464 75.5168 23.0899 75.5168C23.5292 76.5677 23.9669 77.6194 24.3986 78.6735C24.728 79.4778 25.0582 80.2817 25.3898 81.0851C25.438 81.202 25.4862 81.3189 25.5344 81.4358C25.6018 81.5995 25.6694 81.7632 25.737 81.9269C25.7568 81.975 25.7766 82.023 25.797 82.0726C25.9251 82.3824 26.0586 82.6894 26.1963 82.9952C26.793 81.5656 27.3883 80.1355 27.979 78.7035C28.4176 77.6401 28.8594 76.5782 29.3027 75.5168C29.9102 75.5168 30.5176 75.5168 31.1435 75.5168C31.1435 78.4782 31.1435 81.4396 31.1435 84.4908C30.7828 84.4908 30.4221 84.4908 30.0505 84.4908C30.0315 81.9091 30.0126 79.3273 29.993 76.6673C29.2288 78.5174 29.2288 78.5174 28.4648 80.3675C28.3131 80.735 28.1613 81.1024 28.0094 81.4698C27.8711 81.8044 27.7331 82.1391 27.5952 82.4738C27.5042 82.6946 27.4131 82.9153 27.322 83.1359C27.2789 83.2402 27.236 83.3445 27.1931 83.4488C27.1342 83.5921 27.075 83.7353 27.0158 83.8785C26.9985 83.9208 26.9811 83.9631 26.9633 84.0067C26.8911 84.1807 26.819 84.3334 26.714 84.4908C26.6059 84.5104 26.6059 84.5104 26.4763 84.5077C26.4299 84.5071 26.3836 84.5066 26.3358 84.506C26.2874 84.5046 26.239 84.5031 26.1891 84.5016C26.1402 84.5008 26.0913 84.5001 26.041 84.4993C25.9202 84.4972 25.7993 84.4941 25.6785 84.4908C25.5123 84.1671 25.3647 83.8407 25.2273 83.5039C25.2065 83.4533 25.1857 83.4028 25.1643 83.3507C25.1194 83.2414 25.0745 83.1322 25.0297 83.0229C24.9082 82.7262 24.786 82.4297 24.664 82.1332C24.6386 82.0716 24.6133 82.01 24.5872 81.9466C24.2923 81.23 23.9938 80.5149 23.695 79.7999C23.2594 78.7572 22.8298 77.7122 22.3995 76.6673C22.3806 79.2491 22.3616 81.8308 22.342 84.4908C21.9813 84.4908 21.6206 84.4908 21.249 84.4908C21.249 81.5294 21.249 78.5679 21.249 75.5168Z" fill="#082F49"/>
<path d="M108.977 75.5168C109.546 75.5168 110.116 75.5168 110.702 75.5168C111.22 76.1714 111.22 76.1714 111.343 76.4702C111.494 76.8172 111.676 77.1266 111.882 77.4439C111.944 77.5432 112.005 77.6427 112.067 77.7423C112.098 77.7921 112.128 77.842 112.16 77.8933C112.327 78.1646 112.493 78.4371 112.658 78.7095C112.943 79.1783 113.23 79.6457 113.519 80.1119C113.769 80.5141 114.017 80.9167 114.265 81.3197C114.304 81.3819 114.342 81.4441 114.381 81.5082C114.686 82.0037 114.989 82.5006 115.29 82.9984C115.321 83.0502 115.353 83.102 115.385 83.1554C115.413 83.201 115.44 83.2466 115.469 83.2936C115.527 83.3948 115.527 83.3948 115.592 83.4554C115.611 80.8356 115.63 78.2159 115.65 75.5168C116.01 75.5168 116.371 75.5168 116.743 75.5168C116.743 78.4782 116.743 81.4396 116.743 84.4908C116.173 84.4908 115.604 84.4908 115.017 84.4908C114.669 84.1391 114.669 84.1391 114.608 83.9518C114.479 83.6132 114.278 83.3234 114.082 83.0203C114.007 82.9 113.931 82.7794 113.856 82.6588C113.819 82.5993 113.782 82.5398 113.744 82.4785C113.552 82.1702 113.362 81.8615 113.171 81.5526C112.938 81.1758 112.703 80.8 112.468 80.4245C112.161 79.9345 111.857 79.443 111.554 78.9503C111.206 78.3828 110.854 77.8181 110.496 77.2563C110.372 77.0605 110.25 76.8638 110.127 76.6673C110.108 79.2491 110.089 81.8308 110.07 84.4908C109.709 84.4908 109.348 84.4908 108.977 84.4908C108.977 81.5294 108.977 78.5679 108.977 75.5168Z" fill="#082F49"/>
<path d="M3.64115 75.4454C3.68132 75.4456 3.7215 75.4458 3.76289 75.446C5.5861 75.4555 5.5861 75.4555 6.37005 75.92C6.7941 76.4047 6.93457 76.9203 6.92733 77.5487C6.92614 77.6947 6.92496 77.8406 6.92373 77.991C6.58203 77.991 6.24032 77.991 5.88826 77.991C5.81276 77.52 5.81276 77.52 5.79022 77.3732C5.74166 77.0853 5.68654 76.8404 5.44783 76.649C4.61756 76.2339 3.1464 76.3108 2.26411 76.5528C1.99092 76.6516 1.78914 76.7634 1.63133 77.013C1.43046 77.6253 1.48305 78.2516 1.68885 78.8539C1.8295 79.1091 1.98749 79.1884 2.25288 79.2808C2.58962 79.3695 2.92285 79.3846 3.2688 79.3963C3.37648 79.4006 3.48415 79.4048 3.59182 79.4091C3.75953 79.4156 3.92723 79.4219 4.09497 79.4276C6.09956 79.4977 6.09956 79.4977 6.72891 80.092C7.07599 80.5118 7.12783 81.1469 7.15384 81.6726C7.15688 81.7286 7.15992 81.7846 7.16305 81.8423C7.18421 82.5903 7.09993 83.3862 6.597 83.971C6.01849 84.5423 5.18931 84.5571 4.42427 84.5606C4.36817 84.561 4.31208 84.5613 4.25429 84.5616C4.13618 84.5622 4.01808 84.5626 3.89997 84.5628C3.72174 84.5633 3.54354 84.5651 3.36531 84.5669C2.51532 84.5715 1.58646 84.5749 0.894722 84.0029C0.429371 83.519 0.356017 82.8393 0.362156 82.2012C0.363342 82.0268 0.364529 81.8523 0.365751 81.6726C0.72644 81.6726 1.08713 81.6726 1.45875 81.6726C1.46587 81.815 1.47299 81.9574 1.48032 82.1041C1.511 82.7643 1.511 82.7643 1.80391 83.3409C2.21785 83.5638 2.64335 83.5801 3.10251 83.5827C3.17198 83.5832 3.17198 83.5832 3.24286 83.5837C3.34047 83.5842 3.43808 83.5846 3.53569 83.5848C3.68288 83.5854 3.83002 83.5872 3.9772 83.589C4.60822 83.5931 5.18969 83.5505 5.77321 83.2834C5.84915 83.1586 5.84915 83.1586 5.88826 82.9957C5.90784 82.9282 5.92742 82.8606 5.94759 82.791C6.01603 82.5146 6.02237 82.2475 6.02129 81.9639C6.02222 81.9154 6.02315 81.867 6.0241 81.817C6.02435 81.4913 6.0048 81.1508 5.83074 80.8673C5.58328 80.6648 5.34885 80.5874 5.03818 80.5401C4.99568 80.5331 4.95318 80.5262 4.90939 80.519C4.39877 80.4404 3.88571 80.4218 3.37016 80.4022C1.41197 80.3243 1.41197 80.3243 0.804388 79.7168C0.280101 79.0093 0.320821 77.9406 0.443164 77.1077C0.558146 76.5585 0.822396 76.1219 1.28617 75.805C1.98412 75.4167 2.86548 75.4393 3.64115 75.4454Z" fill="#082F49"/>
<path d="M101.897 75.9697C102.421 76.4737 102.575 77.1692 102.599 77.8749C102.599 77.9564 102.599 78.0379 102.599 78.1194C102.599 78.1644 102.6 78.2094 102.6 78.2557C102.6 78.403 102.6 78.5504 102.6 78.6977C102.601 78.8011 102.601 78.9046 102.601 79.008C102.601 79.2245 102.602 79.4409 102.601 79.6573C102.601 79.933 102.602 80.2086 102.603 80.4843C102.604 80.6979 102.604 80.9115 102.604 81.1251C102.604 81.2267 102.604 81.3282 102.605 81.4298C102.608 82.3506 102.579 83.2256 101.977 83.9775C101.269 84.6426 100.159 84.567 99.2601 84.5633C99.0821 84.5627 98.9042 84.5633 98.7262 84.564C97.7891 84.5648 96.9085 84.5474 96.1434 83.9348C95.5086 83.2583 95.5546 82.2404 95.5553 81.3798C95.5551 81.273 95.5549 81.1661 95.5546 81.0592C95.5542 80.8358 95.5542 80.6124 95.5545 80.3891C95.5548 80.1049 95.5538 79.8207 95.5525 79.5366C95.5516 79.3159 95.5516 79.0953 95.5518 78.8747C95.5517 78.7701 95.5515 78.6654 95.5509 78.5607C95.5467 77.715 95.5495 76.767 96.1335 76.0903C97.1873 75.0855 100.767 75.0631 101.897 75.9697ZM97.0328 76.7557C96.635 77.1877 96.6018 77.6838 96.5988 78.2538C96.5985 78.2954 96.5983 78.337 96.598 78.3798C96.5971 78.5163 96.5967 78.6527 96.5964 78.7891C96.5963 78.8361 96.5961 78.8831 96.5959 78.9316C96.5951 79.1804 96.5945 79.4292 96.5943 79.6781C96.594 79.9333 96.5926 80.1885 96.5909 80.4438C96.5899 80.6416 96.5896 80.8395 96.5895 81.0373C96.5893 81.1313 96.5889 81.2253 96.5881 81.3193C96.583 81.9978 96.5869 82.7176 97.0108 83.2827C97.5435 83.6933 98.2822 83.6467 98.9258 83.6428C99.049 83.6422 99.1721 83.6428 99.2953 83.6436C100.259 83.6723 100.259 83.6723 101.095 83.2827C101.518 82.8594 101.562 82.228 101.564 81.6588C101.564 81.6193 101.564 81.5799 101.564 81.5392C101.565 81.41 101.565 81.2808 101.565 81.1515C101.565 81.0608 101.565 80.97 101.566 80.8792C101.566 80.6893 101.566 80.4994 101.566 80.3094C101.566 80.0676 101.567 79.8258 101.568 79.584C101.568 79.3965 101.569 79.2091 101.569 79.0216C101.569 78.9326 101.569 78.8435 101.569 78.7544C101.59 77.7063 101.59 77.7063 101.131 76.8002C100.381 76.1394 97.7724 76.0518 97.0328 76.7557Z" fill="#082F49"/>
<path d="M66.1431 75.5099C66.2331 75.5104 66.2331 75.5104 66.3248 75.5108C66.3895 75.511 66.4542 75.5112 66.5209 75.5114C66.589 75.5119 66.6571 75.5124 66.7273 75.5129C66.7956 75.5131 66.8639 75.5134 66.9343 75.5137C67.1038 75.5143 67.2733 75.5153 67.4427 75.5165C67.6399 75.9408 67.806 76.3755 67.9699 76.8135C67.999 76.891 68.0282 76.9684 68.0573 77.0459C68.1197 77.2117 68.182 77.3775 68.2442 77.5434C68.3426 77.8059 68.4412 78.0683 68.5399 78.3306C68.6607 78.6519 68.7814 78.9732 68.9021 79.2945C69.2186 80.137 69.5358 80.9792 69.8531 81.8213C69.9522 82.0843 70.0512 82.3473 70.1502 82.6103C70.2118 82.7738 70.2734 82.9373 70.335 83.1009C70.3635 83.1766 70.3921 83.2524 70.4206 83.3281C70.4595 83.4317 70.4986 83.5352 70.5376 83.6388C70.5703 83.7256 70.5703 83.7256 70.6036 83.8142C70.6433 83.9181 70.6853 84.0212 70.7296 84.1231C70.7793 84.2604 70.7793 84.2604 70.7793 84.4905C70.4186 84.4905 70.0579 84.4905 69.6863 84.4905C69.3445 83.6078 69.3445 83.6078 68.9959 82.7072C67.5152 82.6883 66.0345 82.6693 64.5089 82.6497C64.4519 82.8395 64.395 83.0294 64.3363 83.225C64.2984 83.3364 64.2594 83.4475 64.2188 83.558C64.1885 83.6409 64.1885 83.6409 64.1576 83.7254C64.1268 83.8087 64.1268 83.8087 64.0954 83.8937C64.0637 83.9804 64.0637 83.9804 64.0313 84.0688C63.9797 84.2094 63.9279 84.35 63.8761 84.4905C63.4964 84.4905 63.1168 84.4905 62.7256 84.4905C62.8525 84.0511 63 83.6229 63.1579 83.1937C63.1835 83.1239 63.209 83.0541 63.2353 82.9821C63.2905 82.8313 63.3458 82.6806 63.4011 82.5298C63.489 82.2905 63.5767 82.0511 63.6643 81.8117C63.756 81.5612 63.8477 81.3108 63.9395 81.0603C64.1564 80.4684 64.3728 79.8764 64.5889 79.2842C64.6038 79.2434 64.6186 79.2027 64.634 79.1607C64.7076 78.9589 64.7812 78.7572 64.8547 78.5555C65.0623 77.9866 65.2699 77.4178 65.4779 76.8491C65.5418 76.6739 65.6056 76.4987 65.6693 76.3235C65.7062 76.2226 65.743 76.1216 65.7799 76.0207C65.8045 75.9527 65.8045 75.9527 65.8296 75.8834C65.9633 75.5184 65.9633 75.5184 66.1431 75.5099ZM66.6949 76.4944C66.6698 76.5657 66.6447 76.637 66.6188 76.7105C66.4993 77.0496 66.3796 77.3886 66.2599 77.7276C66.2272 77.82 66.2272 77.82 66.1939 77.9143C65.8405 78.9141 65.4799 79.9111 65.1113 80.9054C65.0852 80.9762 65.0852 80.9762 65.0585 81.0485C65.026 81.1365 64.9934 81.2243 64.9606 81.3121C64.8813 81.5153 64.8813 81.5153 64.8541 81.7293C66.126 81.7293 67.3979 81.7293 68.7083 81.7293C68.3319 80.7026 67.9553 79.6761 67.5734 78.6514C67.5023 78.4606 67.4314 78.2697 67.3604 78.0789C67.3142 77.9549 67.268 77.8309 67.2218 77.707C67.2011 77.6512 67.1804 77.5954 67.159 77.5379C67.0284 77.188 66.8927 76.8405 66.7524 76.4944C66.7334 76.4944 66.7145 76.4944 66.6949 76.4944Z" fill="#082F49"/>
<path d="M37.8741 75.5168C38.2348 75.5168 38.5955 75.5168 38.9671 75.5168C38.9673 75.6048 38.9675 75.6929 38.9677 75.7837C38.9699 76.6148 38.9732 77.446 38.9777 78.2771C38.98 78.7044 38.9818 79.1317 38.9827 79.559C38.9834 79.9316 38.985 80.3042 38.9875 80.6768C38.9888 80.8739 38.9897 81.071 38.9896 81.2681C38.9898 81.4887 38.9913 81.7093 38.9932 81.9299C38.9929 81.9945 38.9926 82.0591 38.9923 82.1257C38.9976 82.5231 39.0457 82.8794 39.2547 83.2253C39.7883 83.6654 40.6445 83.5887 41.2947 83.5854C41.4404 83.5848 41.5862 83.5854 41.7319 83.5861C42.771 83.6037 42.771 83.6037 43.6411 83.0994C43.8962 82.6895 43.8742 82.1956 43.8752 81.7274C43.8757 81.66 43.8763 81.5926 43.8769 81.5232C43.8787 81.3019 43.8797 81.0806 43.8806 80.8593C43.8817 80.7052 43.8828 80.5512 43.884 80.3972C43.8867 80.0341 43.8888 79.6711 43.8907 79.3081C43.8929 78.8945 43.8958 78.4809 43.8987 78.0672C43.9046 77.2171 43.9097 76.3669 43.9143 75.5168C44.275 75.5168 44.6357 75.5168 45.0073 75.5168C45.01 76.3899 45.0121 77.263 45.0133 78.1362C45.0139 78.5416 45.0147 78.9471 45.016 79.3526C45.0173 79.7442 45.018 80.1359 45.0183 80.5275C45.0185 80.6766 45.0189 80.8257 45.0195 80.9747C45.0203 81.1843 45.0205 81.3938 45.0204 81.6033C45.0208 81.6643 45.0212 81.7253 45.0217 81.7882C45.0197 82.5183 44.9373 83.3497 44.4213 83.912C43.6069 84.6378 42.4849 84.5591 41.4671 84.559C41.3011 84.5591 41.1351 84.5602 40.9692 84.5613C39.1047 84.5671 39.1047 84.5671 38.4494 83.9551C37.7065 83.1077 37.8507 81.8235 37.8572 80.775C37.8576 80.6228 37.8578 80.4707 37.858 80.3185C37.8585 79.9614 37.8599 79.6043 37.8617 79.2472C37.8636 78.8399 37.8645 78.4327 37.8654 78.0255C37.8672 77.1893 37.8703 76.353 37.8741 75.5168Z" fill="#082F49"/>
<path d="M22.2836 93.8101C22.6294 93.8072 22.9751 93.8051 23.3208 93.8037C23.4381 93.8032 23.5553 93.8024 23.6726 93.8014C25.6912 93.7845 25.6912 93.7845 26.3069 94.2954C26.6275 94.6938 26.5907 95.221 26.5406 95.7084C26.4917 95.8896 26.4247 96.0209 26.3105 96.1686C26.2843 96.2028 26.2581 96.237 26.2311 96.2722C26.1644 96.355 26.094 96.4348 26.0228 96.5138C26.0569 96.5452 26.0909 96.5765 26.126 96.6088C26.5405 97.0044 26.842 97.3762 26.8974 97.96C26.9058 98.3388 26.8683 98.692 26.6134 98.9883C26.2065 99.3637 25.7811 99.5129 25.229 99.5117C25.1624 99.5117 25.0959 99.5117 25.0273 99.5117C24.958 99.5114 24.8887 99.5111 24.8173 99.5108C24.7531 99.5107 24.6889 99.5107 24.6228 99.5106C24.3836 99.5103 24.1444 99.5095 23.9052 99.5087C23.3701 99.5076 22.835 99.5064 22.2836 99.5052C22.2836 98.1004 22.2836 96.6956 22.2836 95.2482C22.7772 95.2482 23.2708 95.2482 23.7793 95.2482C23.8078 95.8462 23.8078 95.8462 23.8368 96.4563C23.9662 96.3471 24.0955 96.238 24.2287 96.1255C24.2692 96.0915 24.3097 96.0576 24.3514 96.0226C24.6109 95.8045 24.6109 95.8045 24.8148 95.5358C24.8156 95.4097 24.8156 95.4097 24.7573 95.3057C24.5954 95.2518 24.4902 95.2396 24.3222 95.2364C24.2692 95.2353 24.2162 95.2341 24.1617 95.2329C24.1047 95.232 24.0477 95.231 23.989 95.23C23.9012 95.2282 23.9012 95.2282 23.8117 95.2264C23.6248 95.2226 23.4378 95.2192 23.2508 95.2159C23.1241 95.2134 22.9974 95.2109 22.8707 95.2083C22.56 95.2022 22.2492 95.1963 21.9385 95.1907C21.985 94.9821 22.0318 94.7736 22.0787 94.5651C22.0919 94.5057 22.1052 94.4463 22.1188 94.3851C22.1316 94.3284 22.1444 94.2716 22.1576 94.2132C22.1693 94.1608 22.1811 94.1084 22.1932 94.0543C22.2261 93.9251 22.2261 93.9251 22.2836 93.8101ZM23.7793 96.6288C23.7793 97.1604 23.7793 97.6919 23.7793 98.2396C23.9336 98.2419 24.0878 98.2443 24.2467 98.2468C24.3186 98.2483 24.3186 98.2483 24.3919 98.2499C24.6505 98.2519 24.8611 98.2298 25.1024 98.1245C25.1805 98.0284 25.1805 98.0284 25.1599 97.8944C24.8986 97.3036 24.3865 96.9379 23.8368 96.6288C23.8179 96.6288 23.7989 96.6288 23.7793 96.6288Z" fill="#082F49"/>
<path d="M49.2065 93.81C49.6241 93.8046 50.0416 93.8005 50.4593 93.7981C50.6532 93.7969 50.8472 93.7952 51.0411 93.7926C51.2648 93.7898 51.4884 93.7885 51.712 93.7875C51.7808 93.7863 51.8495 93.7851 51.9204 93.7839C52.3987 93.7838 52.8102 93.8499 53.1989 94.145C53.5247 94.5404 53.6744 94.9268 53.656 95.4432C53.566 96.1185 53.1994 96.5837 52.7003 97.0171C52.6005 97.089 52.6005 97.089 52.4855 97.089C52.9125 97.9406 53.4261 98.7174 54.0387 99.4475C53.9555 99.653 53.8564 99.7417 53.6733 99.8637C53.6244 99.8967 53.5754 99.9297 53.525 99.9637C53.4738 99.9974 53.4227 100.031 53.3699 100.066C53.3183 100.101 53.2667 100.135 53.2135 100.171C53.0862 100.256 52.9586 100.341 52.8306 100.425C52.5564 100.232 52.3797 99.9979 52.1871 99.728C52.1543 99.6823 52.1216 99.6366 52.0879 99.5896C51.5349 98.8029 51.1323 97.9493 50.7022 97.089C50.6832 97.8863 50.6642 98.6836 50.6446 99.5051C50.1511 99.5051 49.6575 99.5051 49.149 99.5051C49.149 98.0813 49.149 96.6575 49.149 95.1906C49.6425 95.1906 50.1361 95.1906 50.6446 95.1906C50.6636 95.7032 50.6826 96.2157 50.7022 96.7438C50.8386 96.6394 50.9751 96.535 51.1156 96.4274C51.1581 96.3956 51.2005 96.3637 51.2442 96.3309C51.5079 96.1244 51.7159 95.9032 51.8527 95.5933C51.8515 95.4268 51.8515 95.4268 51.7952 95.3057C51.4405 95.2029 51.1172 95.1715 50.7489 95.1668C50.6947 95.1657 50.6404 95.1646 50.5845 95.1634C50.4128 95.16 50.2411 95.1573 50.0694 95.1546C49.9523 95.1525 49.8352 95.1502 49.7182 95.1479C49.4326 95.1424 49.1469 95.1376 48.8613 95.1331C48.9391 94.6795 49.0652 94.2475 49.2065 93.81Z" fill="#082F49"/>
<path d="M8.53573 93.8091C8.59376 94.0056 8.6511 94.2022 8.70831 94.3988C8.72477 94.4545 8.74124 94.5102 8.7582 94.5676C8.78156 94.6482 8.78156 94.6482 8.80539 94.7305C8.81985 94.7799 8.83431 94.8293 8.8492 94.8802C8.88089 95.0172 8.88089 95.0172 8.88089 95.2473C8.79546 95.2758 8.79546 95.2758 8.70831 95.3048C8.70831 96.6906 8.70831 98.0764 8.70831 99.5042C8.19575 99.5042 7.68319 99.5042 7.1551 99.5042C7.1551 98.9347 7.1551 98.3652 7.1551 97.7785C6.66153 97.7785 6.16795 97.7785 5.65942 97.7785C5.75806 98.2781 5.75806 98.2781 5.9147 98.7456C5.93835 98.8065 5.96201 98.8674 5.98638 98.9301C6.05802 99.1027 6.05802 99.1027 6.15761 99.2568C6.23468 99.3892 6.23468 99.3892 6.23468 99.5618C6.15384 99.6314 6.15384 99.6314 6.04143 99.6984C6.00094 99.723 5.96046 99.7476 5.91874 99.773C5.87588 99.7982 5.83302 99.8234 5.78886 99.8494C5.70521 99.8996 5.62162 99.95 5.53808 100C5.49874 100.024 5.4594 100.047 5.41887 100.071C5.30601 100.139 5.30601 100.139 5.18034 100.245C5.1486 100.266 5.11686 100.288 5.08416 100.31C4.8487 100.231 4.79708 100.08 4.68867 99.871C4.65846 99.8136 4.65846 99.8136 4.62764 99.755C4.04736 98.6175 3.88979 97.2546 4.26037 96.0223C4.56554 95.2197 5.03279 94.5205 5.832 94.1543C6.70458 93.8067 7.61138 93.7899 8.53573 93.8091ZM6.26727 95.6574C5.94165 96.0087 5.94165 96.0087 5.832 96.4554C6.26863 96.4554 6.70525 96.4554 7.1551 96.4554C7.1551 96.0757 7.1551 95.696 7.1551 95.3048C6.83437 95.3048 6.50493 95.4495 6.26727 95.6574Z" fill="#082F49"/>
<path d="M47.6528 93.8102C47.7107 94.0174 47.7681 94.2248 47.8254 94.4322C47.8418 94.4911 47.8583 94.55 47.8753 94.6107C47.8986 94.6955 47.8986 94.6955 47.9225 94.782C47.9369 94.8342 47.9514 94.8863 47.9663 94.94C47.998 95.0757 47.998 95.0757 47.998 95.2483C47.922 95.2673 47.8461 95.2863 47.7679 95.3058C47.7679 96.6917 47.7679 98.0775 47.7679 99.5053C47.2743 99.5053 46.7807 99.5053 46.2722 99.5053C46.2722 98.9357 46.2722 98.3662 46.2722 97.7795C45.7786 97.7795 45.285 97.7795 44.7765 97.7795C44.8727 98.3338 45.0039 98.7365 45.281 99.2199C45.3518 99.3902 45.3518 99.3902 45.3131 99.5049C45.1688 99.7228 44.938 99.8421 44.7226 99.9834C44.6751 100.016 44.6277 100.048 44.5789 100.082C44.5332 100.112 44.4876 100.142 44.4406 100.173C44.3779 100.215 44.3779 100.215 44.3141 100.257C44.2012 100.311 44.2012 100.311 44.0287 100.253C43.9364 100.109 43.8555 99.9692 43.777 99.8181C43.7541 99.7744 43.7313 99.7308 43.7078 99.6858C43.1028 98.4926 43.0235 97.2379 43.3997 95.9604C43.5492 95.5414 43.7484 95.1906 44.0287 94.8456C44.0574 94.8091 44.0861 94.7725 44.1156 94.7349C44.6798 94.0939 45.6169 93.8777 46.434 93.8169C46.8401 93.802 47.2465 93.8061 47.6528 93.8102ZM45.3625 95.6654C45.1678 95.9102 44.991 96.1581 44.8915 96.4564C45.3472 96.4564 45.8028 96.4564 46.2722 96.4564C46.2722 96.0767 46.2722 95.697 46.2722 95.3058C45.9377 95.3058 45.6206 95.459 45.3625 95.6654Z" fill="#082F49"/>
<path d="M111.392 93.8106C111.886 93.8106 112.379 93.8106 112.888 93.8106C113.159 94.1155 113.423 94.4134 113.672 94.7346C113.697 94.7669 113.722 94.7991 113.748 94.8323C113.944 95.0837 114.135 95.3387 114.326 95.5939C114.345 95.0054 114.364 94.4169 114.383 93.8106C114.877 93.8106 115.371 93.8106 115.879 93.8106C115.879 95.69 115.879 97.5694 115.879 99.5057C115.386 99.5057 114.892 99.5057 114.383 99.5057C114.391 99.2601 114.398 99.0145 114.405 98.7615C114.399 98.0318 114.244 97.6301 113.732 97.12C113.696 97.0859 113.66 97.0519 113.623 97.0168C113.472 96.8695 113.346 96.7088 113.215 96.5431C113.085 96.3802 113.085 96.3802 112.945 96.2267C112.926 97.3088 112.907 98.3909 112.888 99.5057C112.394 99.5057 111.901 99.5057 111.392 99.5057C111.392 97.6263 111.392 95.747 111.392 93.8106Z" fill="#082F49"/>
<path d="M83.6069 93.8106C85.1601 93.8106 85.1601 93.8106 85.5916 94.2205C85.6903 94.3562 85.6903 94.3562 85.7543 94.4728C85.9043 94.7307 86.0795 94.9568 86.2675 95.1877C86.3195 95.254 86.3713 95.3204 86.423 95.387C86.5067 95.494 86.5067 95.494 86.5983 95.5939C86.6173 95.0054 86.6363 94.4169 86.6558 93.8106C87.1304 93.8106 87.605 93.8106 88.094 93.8106C88.094 95.69 88.094 97.5694 88.094 99.5057C87.6194 99.5057 87.1448 99.5057 86.6558 99.5057C86.6603 99.4043 86.6649 99.3028 86.6695 99.1983C86.6844 98.4482 86.6817 97.8895 86.1512 97.3266C86.0839 97.259 86.0158 97.1922 85.9467 97.1264C85.8024 96.9851 85.6811 96.8307 85.5556 96.6726C85.4967 96.6009 85.4967 96.6009 85.4365 96.5278C85.3417 96.4104 85.2507 96.2899 85.1601 96.1692C85.1412 97.2702 85.1222 98.3713 85.1026 99.5057C84.609 99.5057 84.1155 99.5057 83.6069 99.5057C83.6069 97.6263 83.6069 95.747 83.6069 93.8106Z" fill="#082F49"/>
<path d="M162.928 1.03492C163.794 1.78762 164.401 2.80499 164.546 3.95437C164.63 5.37187 164.398 6.61849 163.435 7.70454C162.628 8.5719 161.502 9.1462 160.314 9.21082C159.023 9.25189 157.861 8.92686 156.895 8.03873C156.854 8.00209 156.814 7.96546 156.772 7.92772C155.893 7.09366 155.413 5.97165 155.372 4.77047C155.359 3.55496 155.716 2.44231 156.55 1.53827C156.594 1.48925 156.638 1.44024 156.684 1.38974C157.008 1.04811 157.348 0.791706 157.758 0.560326C157.796 0.538005 157.834 0.515685 157.874 0.492688C159.456 -0.368283 161.543 -0.0462774 162.928 1.03492ZM157.182 1.99848C157.144 2.03496 157.106 2.07145 157.066 2.10904C156.423 2.76519 156.135 3.72037 156.125 4.61592C156.137 5.66679 156.547 6.65882 157.297 7.40594C157.715 7.77127 158.167 8.0535 158.678 8.26883C158.724 8.28841 158.77 8.30799 158.818 8.32816C159.766 8.655 160.853 8.46255 161.738 8.0567C162.659 7.56823 163.221 6.8467 163.625 5.91026C163.647 5.85894 163.67 5.80763 163.692 5.75476C164 4.85855 163.843 3.74467 163.442 2.91171C162.967 1.98279 162.209 1.30297 161.22 0.973795C159.72 0.493383 158.274 0.882316 157.182 1.99848Z" fill="#082F49"/>
<path d="M131.239 94.3279C131.622 94.6453 131.778 95.1072 131.825 95.5951C131.892 96.7964 131.648 97.9977 130.876 98.9444C130.457 99.3976 129.977 99.6271 129.365 99.6941C128.796 99.7155 128.272 99.5381 127.845 99.1601C126.941 98.1868 126.663 96.8883 126.694 95.5935C126.748 95.0101 127.016 94.5534 127.448 94.1603C128.47 93.406 130.275 93.581 131.239 94.3279ZM128.391 95.4785C128.145 96.0045 128.322 96.7241 128.478 97.2618C128.616 97.6143 128.764 97.9304 129.053 98.1822C129.22 98.2492 129.22 98.2492 129.398 98.2397C129.781 98.0436 129.917 97.6067 130.042 97.2204C130.188 96.7131 130.346 96.0997 130.159 95.5879C130.028 95.3757 129.851 95.2239 129.614 95.1513C129.14 95.0975 128.715 95.0902 128.391 95.4785Z" fill="#082F49"/>
<path d="M63.8999 93.7277C63.9628 93.7281 64.0256 93.7286 64.0904 93.729C64.8243 93.744 65.4457 93.9061 65.9904 94.4257C66.5152 94.9979 66.4924 95.6871 66.4712 96.4201C66.4184 97.441 66.0739 98.4415 65.32 99.1567C64.8018 99.5977 64.2584 99.7285 63.5871 99.6781C62.9354 99.5511 62.5071 99.1913 62.1226 98.6626C61.5277 97.7575 61.2203 96.5293 61.371 95.4445C61.5057 94.8253 61.837 94.4259 62.3107 94.0153C62.8121 93.7696 63.349 93.7223 63.8999 93.7277ZM63.1046 95.389C62.8286 95.8065 62.9517 96.3178 63.0298 96.782C63.1321 97.2798 63.2713 97.7609 63.6446 98.1249C63.7832 98.2073 63.8525 98.2399 64.0149 98.2399C64.2961 98.1302 64.4078 97.9297 64.5279 97.6662C64.7868 97.0173 64.9265 96.4109 64.8526 95.7088C64.7387 95.4743 64.608 95.3382 64.3924 95.191C63.9839 95.063 63.4199 95.0612 63.1046 95.389Z" fill="#082F49"/>
<path d="M121.164 94.1401C121.591 94.4533 121.86 94.7843 121.977 95.305C122 95.5381 122.002 95.7685 121.999 96.0025C121.998 96.0661 121.997 96.1297 121.997 96.1952C121.976 97.2789 121.706 98.2631 120.934 99.0548C120.442 99.5209 119.94 99.6982 119.268 99.6892C118.786 99.6542 118.42 99.4829 118.065 99.1593C118.032 99.1288 117.998 99.0983 117.963 99.0669C117.142 98.2269 116.898 96.9445 116.896 95.8172C116.906 95.1194 117.159 94.6578 117.648 94.1689C118.606 93.5059 120.188 93.5465 121.164 94.1401ZM118.619 95.4345C118.333 95.918 118.505 96.5899 118.63 97.1108C118.748 97.4976 118.914 97.9736 119.275 98.1957C119.433 98.2559 119.517 98.2369 119.676 98.1814C120.075 97.8297 120.206 97.3198 120.327 96.8187C120.337 96.7784 120.346 96.7381 120.357 96.6966C120.455 96.2597 120.489 95.8187 120.251 95.4201C119.773 95.0233 119.085 94.9928 118.619 95.4345Z" fill="#082F49"/>
<path d="M35.0547 93.8099C35.4004 93.807 35.7462 93.8049 36.0919 93.8036C36.2092 93.803 36.3264 93.8022 36.4437 93.8012C38.4945 93.7841 38.4945 93.7841 39.2186 94.3836C39.6816 94.8542 39.8029 95.4387 39.8312 96.0815C39.8224 97.0694 39.4265 97.8943 38.7739 98.6196C37.7479 99.6139 36.4305 99.505 35.0547 99.505C35.0547 98.1002 35.0547 96.6954 35.0547 95.248C35.5483 95.248 36.0419 95.248 36.5504 95.248C36.5504 96.2162 36.5504 97.1844 36.5504 98.1819C37.2547 97.9258 37.6373 97.7321 37.9886 97.0889C38.1733 96.6617 38.2403 96.1995 38.0928 95.7514C38.005 95.5405 37.8987 95.4261 37.7009 95.3056C37.531 95.2522 37.3741 95.2396 37.1965 95.2362C37.1424 95.2351 37.0883 95.2339 37.0325 95.2327C36.9746 95.2318 36.9166 95.2308 36.8569 95.2298C36.7674 95.228 36.7674 95.228 36.676 95.2262C36.4856 95.2224 36.2951 95.219 36.1046 95.2157C35.9754 95.2132 35.8462 95.2107 35.7169 95.2081C35.4003 95.202 35.0837 95.1961 34.7671 95.1905C34.8291 94.8397 34.8936 94.4909 34.9756 94.1442C34.9906 94.0805 35.0056 94.0168 35.021 93.9512C35.0377 93.8812 35.0377 93.8812 35.0547 93.8099Z" fill="#082F49"/>
<path d="M105.582 93.8106C106.075 93.8106 106.569 93.8106 107.077 93.8106C107.077 94.3991 107.077 94.9876 107.077 95.5939C107.552 95.5939 108.027 95.5939 108.516 95.5939C108.516 95.0054 108.516 94.4169 108.516 93.8106C109.009 93.8106 109.503 93.8106 110.011 93.8106C110.011 95.69 110.011 97.5694 110.011 99.5057C109.518 99.5057 109.024 99.5057 108.516 99.5057C108.516 98.6515 108.516 97.7972 108.516 96.917C108.041 96.917 107.566 96.917 107.077 96.917C107.084 97.2487 107.091 97.5804 107.099 97.9121C107.101 98.0249 107.104 98.1377 107.106 98.2506C107.109 98.4128 107.113 98.575 107.117 98.7372C107.118 98.7876 107.119 98.838 107.12 98.8899C107.121 98.9371 107.122 98.9843 107.123 99.033C107.125 99.0951 107.125 99.0951 107.126 99.1584C107.135 99.2796 107.16 99.3888 107.193 99.5057C106.264 100.136 106.264 100.136 105.812 100.369C105.607 99.9242 105.573 99.5337 105.575 99.0482C105.575 98.9915 105.575 98.9348 105.575 98.8764C105.575 98.6896 105.576 98.5028 105.576 98.3161C105.576 98.1863 105.576 98.0565 105.576 97.9268C105.577 97.5858 105.577 97.2447 105.578 96.9037C105.578 96.5555 105.579 96.2073 105.579 95.8591C105.58 95.1763 105.581 94.4934 105.582 93.8106Z" fill="#082F49"/>
<path d="M135.832 93.8026C135.929 93.8032 136.025 93.8037 136.121 93.8042C136.353 93.8055 136.585 93.8074 136.818 93.8098C136.875 94.0075 136.933 94.2052 136.99 94.4031C137.007 94.4592 137.023 94.5154 137.04 94.5733C137.063 94.6542 137.063 94.6542 137.087 94.7368C137.102 94.7865 137.116 94.8362 137.131 94.8874C137.163 95.0179 137.163 95.0179 137.163 95.1904C137.061 95.1917 137.061 95.1917 136.958 95.193C136.706 95.1963 136.454 95.2008 136.202 95.2055C136.093 95.2075 135.984 95.2091 135.875 95.2104C135.718 95.2123 135.561 95.2153 135.404 95.2185C135.356 95.2189 135.308 95.2193 135.258 95.2197C134.889 95.2288 134.594 95.2823 134.326 95.5572C134.141 95.9545 134.059 96.3894 134.171 96.8192C134.352 97.3065 134.722 97.7187 135.149 98.0092C135.339 98.0852 135.529 98.1611 135.725 98.2393C135.725 97.8217 135.725 97.4041 135.725 96.9738C135.535 96.9738 135.345 96.9738 135.149 96.9738C135.149 96.5182 135.149 96.0625 135.149 95.5931C135.833 95.5931 136.516 95.5931 137.22 95.5931C137.22 96.903 137.22 98.2129 137.22 99.5624C134.494 99.5624 134.494 99.5624 133.539 98.642C132.881 97.9567 132.566 97.0794 132.539 96.136C132.558 95.4772 132.697 94.8083 133.189 94.3365C133.95 93.7345 134.91 93.7928 135.832 93.8026Z" fill="#082F49"/>
<path d="M17.3367 93.8106C17.8873 93.8106 18.4378 93.8106 19.005 93.8106C18.9306 94.0337 18.86 94.2319 18.763 94.4425C18.0505 95.9398 18.0505 95.9398 18.0342 97.5534C18.1468 97.8314 18.3076 97.9535 18.5772 98.0783C18.8672 98.1469 19.1682 98.1579 19.4652 98.1826C19.4652 96.7399 19.4652 95.2971 19.4652 93.8106C19.9588 93.8106 20.4524 93.8106 20.9609 93.8106C20.9609 95.69 20.9609 97.5694 20.9609 99.5057C17.5372 99.5057 17.5372 99.5057 16.9916 98.988C16.5499 98.5336 16.3615 97.918 16.3408 97.2981C16.368 96.0363 16.787 94.9291 17.3367 93.8106Z" fill="#082F49"/>
<path d="M141.248 93.8106C142.387 93.8106 143.526 93.8106 144.7 93.8106C144.822 94.269 144.942 94.7282 145.045 95.1913C144.304 95.1913 143.564 95.1913 142.801 95.1913C142.801 95.438 142.801 95.6848 142.801 95.9391C143.466 95.9391 144.13 95.9391 144.815 95.9391C144.684 96.6595 144.684 96.6595 144.61 96.953C144.595 97.0107 144.581 97.0684 144.566 97.1278C144.527 97.2622 144.527 97.2622 144.47 97.3197C144.346 97.3248 144.222 97.3259 144.099 97.3253C144.024 97.3252 143.949 97.325 143.871 97.3248C143.792 97.3243 143.712 97.3238 143.632 97.3233C143.552 97.323 143.472 97.3228 143.391 97.3225C143.195 97.3218 142.998 97.3208 142.801 97.3197C142.801 97.6045 142.801 97.8892 142.801 98.1826C143.58 98.1826 144.358 98.1826 145.16 98.1826C145.102 98.6428 145.102 98.6428 144.872 99.5057C143.676 99.5057 142.48 99.5057 141.248 99.5057C141.248 97.6263 141.248 95.747 141.248 93.8106Z" fill="#082F49"/>
<path d="M78.8896 93.8106C80.0287 93.8106 81.1677 93.8106 82.3412 93.8106C82.6288 94.9611 82.6288 94.9611 82.6288 95.1913C81.9075 95.1913 81.1861 95.1913 80.4429 95.1913C80.4429 95.438 80.4429 95.6848 80.4429 95.9391C81.1073 95.9391 81.7717 95.9391 82.4563 95.9391C82.3869 96.2488 82.3869 96.2488 82.3161 96.5647C82.2943 96.6622 82.2943 96.6622 82.2721 96.7617C82.2548 96.8384 82.2548 96.8384 82.2372 96.9166C82.2254 96.969 82.2137 97.0214 82.2016 97.0754C82.1686 97.2047 82.1686 97.2047 82.1111 97.3197C81.5606 97.3197 81.0101 97.3197 80.4429 97.3197C80.4429 97.6045 80.4429 97.8892 80.4429 98.1826C81.2212 98.1826 81.9995 98.1826 82.8014 98.1826C82.5713 99.2181 82.5713 99.2181 82.4563 99.5057C81.2793 99.5057 80.1023 99.5057 78.8896 99.5057C78.8896 97.6263 78.8896 95.747 78.8896 93.8106Z" fill="#082F49"/>
<path d="M96.4927 93.8106C97.6127 93.8106 98.7327 93.8106 99.8867 93.8106C100.083 94.4 100.083 94.4 100.156 94.6951C100.171 94.7525 100.185 94.8099 100.2 94.869C100.232 95.0187 100.232 95.0187 100.232 95.1913C99.4915 95.1913 98.7512 95.1913 97.9884 95.1913C97.9884 95.438 97.9884 95.6848 97.9884 95.9391C98.6528 95.9391 99.3172 95.9391 100.002 95.9391C99.9371 96.4568 99.9371 96.4568 99.8883 96.6456C99.8791 96.6818 99.8699 96.718 99.8604 96.7554C99.8432 96.8212 99.8432 96.8212 99.8256 96.8883C99.7704 97.1018 99.7704 97.1018 99.7141 97.3197C99.1446 97.3197 98.5751 97.3197 97.9884 97.3197C97.9884 97.6045 97.9884 97.8892 97.9884 98.1826C98.7857 98.1826 99.583 98.1826 100.404 98.1826C100.358 98.3796 100.312 98.5765 100.264 98.7794C100.25 98.8415 100.235 98.9035 100.22 98.9674C100.209 99.0162 100.197 99.0649 100.185 99.1152C100.174 99.1652 100.162 99.2152 100.15 99.2667C100.117 99.3907 100.117 99.3907 100.059 99.5057C98.8823 99.5057 97.7053 99.5057 96.4927 99.5057C96.4927 97.6263 96.4927 95.747 96.4927 93.8106Z" fill="#082F49"/>
<path d="M75.2651 75.5168C77.5242 75.5168 79.7832 75.5168 82.1108 75.5168C82.1108 75.8395 82.1108 76.1622 82.1108 76.4947C81.1616 76.4947 80.2124 76.4947 79.2344 76.4947C79.2344 79.1334 79.2344 81.7722 79.2344 84.4908C78.8738 84.4908 78.5131 84.4908 78.1414 84.4908C78.1414 81.8521 78.1414 79.2134 78.1414 76.4947C77.1923 76.4947 76.2431 76.4947 75.2651 76.4947C75.2651 76.172 75.2651 75.8493 75.2651 75.5168Z" fill="#082F49"/>
<path d="M74.5762 93.8106C75.7722 93.8106 76.9682 93.8106 78.2004 93.8106C77.8704 94.6687 77.8704 94.6687 77.7076 95.0173C77.6803 95.0765 77.6803 95.0765 77.6525 95.1369C77.6141 95.2203 77.5756 95.3036 77.537 95.3869C77.4352 95.6066 77.3341 95.8267 77.233 96.0467C77.2127 96.0908 77.1925 96.1349 77.1716 96.1803C76.8752 96.8256 76.5891 97.4755 76.302 98.1251C76.8905 98.1441 77.479 98.1631 78.0853 98.1826C78.0497 98.3369 78.0141 98.4911 77.9775 98.65C77.9665 98.6979 77.9555 98.7458 77.9442 98.7952C77.9307 98.8535 77.9307 98.8535 77.9168 98.9129C77.9078 98.9521 77.8987 98.9913 77.8894 99.0316C77.847 99.1918 77.7926 99.3485 77.7402 99.5057C76.5062 99.5057 75.2723 99.5057 74.001 99.5057C74.1951 98.9233 74.1951 98.9233 74.2905 98.7107C74.3226 98.6389 74.3226 98.6389 74.3552 98.5656C74.3779 98.5155 74.4005 98.4653 74.4239 98.4136C74.4479 98.3598 74.472 98.3059 74.4968 98.2504C74.5734 98.0791 74.6503 97.9079 74.7272 97.7368C74.8276 97.513 74.9278 97.2892 75.0279 97.0653C75.0524 97.0105 75.077 96.9557 75.1022 96.8993C75.3551 96.3326 75.5987 95.7622 75.8418 95.1913C75.3293 95.1723 74.8167 95.1533 74.2886 95.1337C74.3461 94.6735 74.3461 94.6735 74.5762 93.8106Z" fill="#082F49"/>
<path d="M67.557 93.8106C68.6581 93.8106 69.7592 93.8106 70.8936 93.8106C71.1812 94.9036 71.1812 94.9036 71.1812 95.1913C70.4788 95.1913 69.7764 95.1913 69.0527 95.1913C69.0527 95.457 69.0527 95.7228 69.0527 95.9966C69.6982 95.9966 70.3436 95.9966 71.0086 95.9966C70.9552 96.2422 70.9552 96.2422 70.9008 96.4928C70.8898 96.5437 70.8788 96.5946 70.8675 96.6471C70.8539 96.7088 70.8539 96.7088 70.8401 96.7719C70.831 96.8134 70.822 96.855 70.8127 96.8979C70.7714 97.06 70.7164 97.2185 70.6635 97.3772C70.1319 97.3772 69.6004 97.3772 69.0527 97.3772C69.0596 97.6434 69.0667 97.9095 69.0741 98.1757C69.0766 98.2662 69.079 98.3567 69.0813 98.4472C69.0847 98.5774 69.0883 98.7076 69.0921 98.8379C69.093 98.8782 69.094 98.9185 69.095 98.9601C69.1007 99.1492 69.1107 99.3246 69.1678 99.5057C67.881 100.369 67.881 100.369 67.7296 100.369C67.5743 99.9843 67.5328 99.6499 67.5375 99.2376C67.5374 99.1491 67.5374 99.1491 67.5374 99.0589C67.5375 98.8656 67.5388 98.6723 67.5402 98.479C67.5405 98.3443 67.5408 98.2096 67.5409 98.075C67.5416 97.7217 67.5433 97.3685 67.5452 97.0153C67.5473 96.5908 67.5481 96.1663 67.5491 95.7418C67.5507 95.0981 67.5541 94.4544 67.557 93.8106Z" fill="#082F49"/>
<path d="M158.103 1.94139C161.42 1.94139 161.42 1.94139 161.93 2.42744C162.259 2.8042 162.275 3.134 162.263 3.61369C162.231 4.01267 162.106 4.22954 161.813 4.49412C161.62 4.65124 161.463 4.76017 161.209 4.76017C161.475 5.37516 161.755 5.97952 162.064 6.57433C162.087 6.62043 162.111 6.66654 162.135 6.71404C162.167 6.7751 162.167 6.7751 162.199 6.83739C162.245 6.94617 162.245 6.94617 162.245 7.11875C161.827 7.11875 161.41 7.11875 160.979 7.11875C160.725 6.61521 160.475 6.11047 160.231 5.60149C160.209 5.55397 160.186 5.50646 160.162 5.4575C160.141 5.41321 160.12 5.36893 160.098 5.3233C160.07 5.26431 160.07 5.26431 160.042 5.20412C160.001 5.10533 160.001 5.10533 160.001 4.99028C159.755 4.99028 159.508 4.99028 159.254 4.99028C159.254 5.69267 159.254 6.39507 159.254 7.11875C158.874 7.11875 158.494 7.11875 158.103 7.11875C158.103 5.41022 158.103 3.70169 158.103 1.94139ZM159.254 2.68923C159.254 3.20179 159.254 3.71435 159.254 4.24244C159.424 4.246 159.595 4.24956 159.771 4.25322C159.824 4.2548 159.877 4.25637 159.932 4.25799C160.317 4.26183 160.62 4.19424 160.947 3.97638C161.084 3.76884 161.105 3.56801 161.094 3.32202C161.009 3.0806 160.918 2.92675 160.692 2.80428C160.357 2.70422 160.062 2.67426 159.714 2.68204C159.562 2.68441 159.41 2.68679 159.254 2.68923Z" fill="#082F49"/>
<path d="M13.8078 93.793C13.8758 93.7934 13.8758 93.7934 13.9452 93.7938C14.0882 93.7947 14.2311 93.7969 14.3741 93.7991C14.4718 93.8 14.5695 93.8007 14.6671 93.8015C14.9051 93.8033 15.1429 93.8063 15.3808 93.8099C15.4386 94.0088 15.496 94.2077 15.5534 94.4067C15.5699 94.4634 15.5863 94.52 15.6033 94.5784C15.6189 94.6325 15.6344 94.6867 15.6505 94.7424C15.6649 94.7924 15.6794 94.8425 15.6943 94.894C15.726 95.0179 15.726 95.0179 15.726 95.133C15.1565 95.152 14.587 95.171 14.0002 95.1905C14.0584 95.4817 14.0811 95.5297 14.2734 95.7298C14.3431 95.8043 14.3431 95.8043 14.4141 95.8804C14.4398 95.9077 14.4655 95.9351 14.4919 95.9632C15.9303 97.5158 15.9303 97.5158 15.9022 98.3257C15.852 98.7108 15.6794 98.9976 15.3896 99.2537C15.1605 99.424 14.9733 99.5124 14.6898 99.5115C14.6437 99.5115 14.5977 99.5115 14.5502 99.5115C14.5008 99.5112 14.4513 99.5109 14.4004 99.5106C14.3496 99.5105 14.2987 99.5104 14.2464 99.5103C14.084 99.51 13.9217 99.5093 13.7593 99.5086C13.6492 99.5083 13.5392 99.508 13.4291 99.5078C13.1593 99.5071 12.8894 99.5062 12.6196 99.505C12.5618 99.3061 12.5044 99.1071 12.447 98.9081C12.4305 98.8515 12.4141 98.7948 12.3971 98.7365C12.3815 98.6823 12.366 98.6282 12.3499 98.5724C12.3355 98.5224 12.321 98.4724 12.3061 98.4209C12.2744 98.2969 12.2744 98.2969 12.2744 98.1819C12.3243 98.1804 12.3743 98.179 12.4257 98.1775C12.6108 98.172 12.7958 98.1663 12.9809 98.1605C13.061 98.158 13.1411 98.1556 13.2212 98.1533C13.3363 98.1499 13.4514 98.1462 13.5665 98.1425C13.6358 98.1404 13.7051 98.1383 13.7765 98.1362C13.9392 98.1352 13.9392 98.1352 14.0577 98.0668C13.9793 97.8345 13.877 97.6904 13.709 97.5131C13.4737 97.259 13.2515 96.9979 13.0342 96.7284C12.9499 96.624 12.8646 96.5203 12.7784 96.4174C12.4046 95.9664 12.1916 95.5687 12.2052 94.9667C12.2439 94.5651 12.4104 94.3325 12.7101 94.0712C13.0678 93.8437 13.394 93.7844 13.8078 93.793Z" fill="#082F49"/>
<path d="M29.1495 93.798C29.1936 93.7981 29.2378 93.7983 29.2832 93.7985C29.4227 93.7991 29.5622 93.8005 29.7016 93.802C29.7968 93.8026 29.892 93.8031 29.9871 93.8036C30.2192 93.8048 30.4512 93.8068 30.6832 93.8092C30.7413 93.9864 30.7986 94.1638 30.8558 94.3413C30.8722 94.3915 30.8887 94.4417 30.9057 94.4934C30.9212 94.542 30.9368 94.5906 30.9528 94.6406C30.9673 94.6852 30.9818 94.7298 30.9967 94.7757C31.0283 94.9022 31.0283 94.9022 31.0283 95.1323C30.9587 95.1345 30.9587 95.1345 30.8876 95.1367C30.678 95.1433 30.4685 95.1504 30.2589 95.1575C30.1858 95.1597 30.1127 95.162 30.0374 95.1643C29.9677 95.1667 29.898 95.1691 29.8261 95.1716C29.7294 95.1748 29.7294 95.1748 29.6308 95.178C29.477 95.1798 29.477 95.1798 29.3601 95.2473C29.3747 95.5679 29.5787 95.7298 29.7915 95.9449C29.8654 96.0217 29.9391 96.0987 30.0126 96.1759C30.0487 96.2136 30.0847 96.2513 30.1219 96.2901C30.682 96.8869 31.2372 97.5024 31.2184 98.3538C31.1742 98.7898 30.9523 99.0318 30.6257 99.3061C30.4325 99.4457 30.2835 99.5189 30.0432 99.5173C29.9971 99.5173 29.951 99.5173 29.9036 99.5173C29.8545 99.5167 29.8053 99.5161 29.7547 99.5155C29.7039 99.5154 29.6532 99.5152 29.6009 99.515C29.4391 99.5144 29.2774 99.5129 29.1156 99.5115C29.0058 99.5109 28.896 99.5104 28.7862 99.5099C28.5173 99.5086 28.2484 99.5066 27.9795 99.5043C27.9214 99.3271 27.8641 99.1497 27.8069 98.9722C27.7904 98.922 27.774 98.8718 27.757 98.82C27.7414 98.7715 27.7258 98.7229 27.7098 98.6729C27.6953 98.6283 27.6809 98.5837 27.666 98.5377C27.6343 98.4113 27.6343 98.4113 27.6343 98.1812C28.517 98.1527 28.517 98.1527 29.4176 98.1237C29.2052 97.6971 29.2052 97.6971 28.9179 97.3578C27.5392 95.89 27.5392 95.89 27.5592 94.9132C27.5895 94.5963 27.6821 94.3904 27.9105 94.169C28.2893 93.8622 28.6731 93.7912 29.1495 93.798Z" fill="#082F49"/>
<path d="M147.752 93.7997C147.846 93.8005 147.941 93.8013 148.036 93.802C148.266 93.8039 148.496 93.8069 148.726 93.8105C148.845 94.1144 148.944 94.415 149.025 94.7309C149.035 94.77 149.045 94.809 149.055 94.8493C149.08 94.944 149.105 95.0388 149.129 95.1336C149.081 95.135 149.032 95.1364 148.983 95.1379C148.804 95.1434 148.626 95.1491 148.447 95.155C148.332 95.1587 148.216 95.1621 148.101 95.1656C148.028 95.168 147.956 95.1704 147.882 95.1729C147.815 95.175 147.748 95.1771 147.679 95.1793C147.521 95.1806 147.521 95.1806 147.403 95.2486C147.474 95.5094 147.553 95.653 147.752 95.8347C148.048 96.1172 148.299 96.4247 148.554 96.7443C148.595 96.7944 148.637 96.8446 148.68 96.8962C149.095 97.3967 149.291 97.7246 149.269 98.3928C149.213 98.8142 148.971 99.0575 148.654 99.3199C148.466 99.4522 148.318 99.5201 148.086 99.5186C148.04 99.5186 147.994 99.5186 147.947 99.5186C147.897 99.518 147.848 99.5174 147.798 99.5168C147.747 99.5166 147.696 99.5165 147.644 99.5163C147.482 99.5157 147.32 99.5142 147.159 99.5127C147.049 99.5122 146.939 99.5116 146.829 99.5112C146.56 99.5099 146.291 99.5079 146.022 99.5056C145.964 99.3175 145.907 99.1293 145.85 98.9411C145.833 98.8876 145.817 98.8342 145.8 98.7792C145.784 98.7278 145.769 98.6765 145.753 98.6236C145.738 98.5763 145.724 98.529 145.709 98.4802C145.677 98.355 145.677 98.355 145.677 98.1824C145.749 98.1807 145.749 98.1807 145.822 98.179C146 98.1745 146.178 98.1695 146.356 98.1642C146.471 98.1609 146.585 98.1582 146.7 98.1555C146.772 98.1533 146.844 98.151 146.919 98.1487C146.985 98.1469 147.052 98.1451 147.121 98.1433C147.299 98.1367 147.299 98.1367 147.461 98.0099C147.249 97.7154 147.022 97.4388 146.785 97.165C145.562 95.7465 145.562 95.7465 145.594 94.9464C145.65 94.6052 145.804 94.3253 146.037 94.0729C146.593 93.7568 147.133 93.7898 147.752 93.7997Z" fill="#082F49"/>
<path d="M51.7949 75.5168C52.1556 75.5168 52.5163 75.5168 52.8879 75.5168C52.8879 78.1745 52.8879 80.8322 52.8879 83.5704C54.3686 83.5704 55.8494 83.5704 57.375 83.5704C57.375 83.8742 57.375 84.1779 57.375 84.4908C55.5335 84.4908 53.6921 84.4908 51.7949 84.4908C51.7949 81.5294 51.7949 78.5679 51.7949 75.5168Z" fill="#082F49"/>
<path d="M53.8662 93.8106C54.4357 93.8106 55.0052 93.8106 55.592 93.8106C55.8068 94.2692 56.0214 94.7274 56.2248 95.1913C56.3551 95.061 56.3958 94.9585 56.4643 94.7881C56.4851 94.737 56.5058 94.6859 56.5272 94.6333C56.5531 94.5682 56.5791 94.5032 56.6059 94.4362C56.6889 94.2298 56.772 94.0233 56.8576 93.8106C57.4461 93.8106 58.0346 93.8106 58.6409 93.8106C58.5602 94.0526 58.4838 94.2541 58.3712 94.4782C58.3408 94.5391 58.3103 94.5999 58.279 94.6626C58.2465 94.7267 58.2141 94.7908 58.1807 94.8569C58.1474 94.923 58.1142 94.9891 58.0799 95.0573C57.814 95.5844 57.5418 96.1081 57.2633 96.6287C57.2433 96.6669 57.2233 96.7051 57.2027 96.7445C57.1722 96.797 57.1418 96.8496 57.1103 96.9038C57.0154 97.1237 57.0096 97.2834 57.0113 97.5224C57.0114 97.563 57.0115 97.6035 57.0116 97.6453C57.012 97.7307 57.0128 97.8161 57.014 97.9014C57.0158 98.0308 57.0163 98.1602 57.0167 98.2896C57.0191 98.6806 57.0339 99.0607 57.0877 99.4482C55.8441 100.369 55.8441 100.369 55.6495 100.369C55.4901 99.9723 55.4684 99.6106 55.488 99.1907C55.5531 97.557 55.2203 96.4493 54.4091 95.0387C54.2712 94.7968 54.1478 94.5498 54.0303 94.2973C54.0133 94.2613 53.9964 94.2252 53.979 94.188C53.8662 93.9411 53.8662 93.9411 53.8662 93.8106Z" fill="#082F49"/>
<path d="M103.598 93.8069C103.656 93.8071 103.714 93.8074 103.774 93.8077C103.917 93.8083 104.059 93.8093 104.202 93.8105C104.25 93.9961 104.298 94.1819 104.346 94.3677C104.359 94.4202 104.373 94.4727 104.387 94.5267C104.4 94.5777 104.413 94.6287 104.427 94.6812C104.439 94.7279 104.451 94.7746 104.463 94.8227C104.491 94.9678 104.494 95.1012 104.489 95.2486C104.448 95.2492 104.407 95.2497 104.364 95.2502C104.174 95.2533 103.985 95.2582 103.796 95.263C103.698 95.2642 103.698 95.2642 103.598 95.2655C103.215 95.2766 102.957 95.3009 102.649 95.5362C102.409 95.8003 102.373 96.1535 102.385 96.4973C102.474 97.0068 102.747 97.5045 103.162 97.8186C103.62 98.1106 104.067 98.1819 104.605 98.24C104.567 98.6948 104.439 99.1254 104.317 99.5631C103.449 99.6053 102.672 99.4345 102.005 98.8584C101.234 98.1259 100.816 97.2638 100.788 96.1957C100.782 95.5413 100.828 95.0213 101.263 94.503C101.909 93.871 102.742 93.7996 103.598 93.8069Z" fill="#082F49"/>
<path d="M91.6606 93.8106C92.9705 93.8106 94.2803 93.8106 95.6299 93.8106C95.9175 95.0187 95.9175 95.0187 95.9175 95.1337C95.405 95.1337 94.8924 95.1337 94.3643 95.1337C94.3643 96.5765 94.3643 98.0192 94.3643 99.5057C93.8707 99.5057 93.3772 99.5057 92.8686 99.5057C92.8686 98.063 92.8686 96.6202 92.8686 95.1337C92.3561 95.1337 91.8435 95.1337 91.3154 95.1337C91.4305 94.5585 91.4305 94.5585 91.6606 93.8106Z" fill="#082F49"/>
<path d="M122.954 93.8106C123.467 93.8106 123.979 93.8106 124.507 93.8106C124.507 95.2534 124.507 96.6961 124.507 98.1826C125.134 98.1826 125.76 98.1826 126.406 98.1826C126.291 98.7579 126.291 98.7579 126.061 99.5057C125.035 99.5057 124.01 99.5057 122.954 99.5057C122.954 97.6263 122.954 95.747 122.954 93.8106Z" fill="#082F49"/>
<path d="M13.4253 75.5168C13.786 75.5168 14.1467 75.5168 14.5183 75.5168C14.5183 78.4782 14.5183 81.4396 14.5183 84.4908C14.1576 84.4908 13.7969 84.4908 13.4253 84.4908C13.4253 81.5294 13.4253 78.5679 13.4253 75.5168Z" fill="#082F49"/>
<path d="M88.0938 75.5168C88.4355 75.5168 88.7772 75.5168 89.1292 75.5168C89.1292 78.4782 89.1292 81.4396 89.1292 84.4908C88.7875 84.4908 88.4458 84.4908 88.0938 84.4908C88.0938 81.5294 88.0938 78.5679 88.0938 75.5168Z" fill="#082F49"/>
<path d="M138.43 93.8106C138.942 93.8106 139.455 93.8106 139.983 93.8106C139.983 95.69 139.983 97.5694 139.983 99.5057C139.47 99.5057 138.958 99.5057 138.43 99.5057C138.43 97.6263 138.43 95.747 138.43 93.8106Z" fill="#082F49"/>
<path d="M40.6929 93.8106C41.2054 93.8106 41.718 93.8106 42.2461 93.8106C42.2461 95.69 42.2461 97.5694 42.2461 99.5057C41.7335 99.5057 41.221 99.5057 40.6929 99.5057C40.6929 97.6263 40.6929 95.747 40.6929 93.8106Z" fill="#082F49"/>
<path d="M32.1201 93.8106C32.6137 93.8106 33.1073 93.8106 33.6158 93.8106C33.6158 95.69 33.6158 97.5694 33.6158 99.5057C33.1222 99.5057 32.6286 99.5057 32.1201 99.5057C32.1201 97.6263 32.1201 95.747 32.1201 93.8106Z" fill="#082F49"/>
</svg>
